<svg id="Agrupar_1" data-name="Agrupar 1" xmlns="http://www.w3.org/2000/svg" width="200" height="200" viewBox="0 0 200 200">
  <defs>
    <style>
      .cls-1 {
        fill-rule: evenodd;
      }
    </style>
  </defs>
  <circle id="Elipse_5" data-name="Elipse 5" cx="34" cy="100" r="20"/>
  <circle id="Circulo_2" data-name="Circulo 2" cx="69.656" cy="65.156" r="11.5"/>
  <circle id="Elipse_2" data-name="Elipse 2" cx="104.5" cy="170.5" r="11.5"/>
  <circle id="Elipse_3" data-name="Elipse 3" cx="139" cy="135" r="20"/>
  <circle id="Elipse_4" data-name="Elipse 4" cx="174.5" cy="99.5" r="11.5"/>
  <circle id="Circulo_3" data-name="Circulo 3" cx="104.5" cy="30.5" r="11.5"/>
  <circle id="Circulo_4" data-name="Circulo 4" cx="70" cy="135" r="11"/>
  <circle id="Circulo_5" data-name="Circulo 5" cx="105" cy="100" r="20"/>
  <circle id="Elipse_1" data-name="Elipse 1" cx="139" cy="65" r="20"/>
  <path id="Retângulo_1" data-name="Retângulo 1" class="cls-1" d="M99.88,88.617L126.8,60.357a8,8,0,0,1,11.311-.274l6.271,5.975a8,8,0,0,1,.274,11.31l-26.924,28.261a8,8,0,0,1-11.31.274l-6.272-5.976A8,8,0,0,1,99.88,88.617Z"/>
  <path id="Triângulo_1" data-name="Triângulo 1" class="cls-1" d="M135.6,76.83l8.372,7.41L134.7,87.974Z"/>
  <path id="Triângulo_2" data-name="Triângulo 2" class="cls-1" d="M117.329,94.419l11.143-.915-3.726,9.28Z"/>
  <path id="Triângulo_3" data-name="Triângulo 3" class="cls-1" d="M112.048,88.369l-7.9-7.909,9.489-3.158Z"/>
  <path id="Triângulo_4" data-name="Triângulo 4" class="cls-1" d="M126.9,72.889l-11.153.776,3.84-9.233Z"/>
</svg>
